<svg id="SvgjsSvg1020" width="288" height="288" xmlns="http://www.w3.org/2000/svg" version="1.1" xmlns:xlink="http://www.w3.org/1999/xlink" xmlns:svgjs="http://svgjs.com/svgjs"><defs id="SvgjsDefs1021"></defs><g id="SvgjsG1022"><svg xmlns="http://www.w3.org/2000/svg" enable-background="new 0 0 80 80" viewBox="0 0 80 80" width="288" height="288"><path d="M9,53h6v1c0,2.2055664,1.7944336,4,4,4h6c2.2055664,0,4-1.7944336,4-4v-8h22v8c0,2.2055664,1.7944336,4,4,4h6	c2.2055664,0,4-1.7944336,4-4v-1h6c2.2055664,0,4-1.7944336,4-4V31c0-2.2055664-1.7944336-4-4-4h-6v-1c0-2.2055664-1.7944336-4-4-4
	h-6c-2.2055664,0-4,1.7944336-4,4v8H29v-8c0-2.2055664-1.7944336-4-4-4h-6c-2.2055664,0-4,1.7944336-4,4v1H9
	c-2.2055664,0-4,1.7944336-4,4v18C5,51.2055664,6.7944336,53,9,53z M71,31v18h-6V31H71z M55,26h6v5v18v5h-6V26z M50.75,38v4H29v-4
	H50.75z M19,26h6l0.0006714,8H25v12h0.00177l0.0006714,8H19v-5V31V26z M9,31h6v18H9V31z" fill="#364f6b" class="color000 svgShape"></path></svg></g></svg>