<svg width="79" height="80" viewBox="0 0 79 80" fill="none" xmlns="http://www.w3.org/2000/svg">
<rect width="79" height="80" rx="8" fill="#7552FF"/>
<path d="M31.0781 16.0535C31.3349 15.9569 31.5443 15.7646 31.6623 15.517C31.7803 15.2693 31.7978 14.9855 31.711 14.7253C31.6243 14.465 31.44 14.2485 31.197 14.1212C30.954 13.9938 30.6711 13.9656 30.4078 14.0424C28.4179 14.7043 27.1769 16.3378 26.4492 18.0879C26.3505 18.3245 26.26 18.5643 26.1777 18.8071C25.7809 18.0544 25.2732 17.3658 24.6715 16.7642C23.8561 15.947 22.8822 15.3053 21.8096 14.8785C20.737 14.4516 19.5885 14.2487 18.4346 14.2821C17.8436 14.2982 17.2812 14.54 16.863 14.9578C16.4448 15.3756 16.2025 15.9378 16.1859 16.5287C16.1524 17.6826 16.3554 18.8312 16.7822 19.9037C17.2091 20.9763 17.8508 21.9502 18.6679 22.7656L18.7358 22.8293C16.9538 23.2153 15.3435 24.1647 14.143 25.5371C12.9426 26.9095 12.2158 28.6318 12.0704 30.4493L12.0576 30.6063C11.7776 34.1007 12.5222 37.6009 14.2003 40.6787L14.9618 42.0746C14.9831 42.1107 15.0043 42.1467 15.0297 42.1807L17.1511 45.1549C17.6319 45.8282 18.2537 46.3887 18.9731 46.7974C19.6925 47.2061 20.4923 47.4532 21.3168 47.5214C22.1414 47.5897 22.9709 47.4775 23.7477 47.1926C24.5245 46.9077 25.23 46.4571 25.8149 45.8719C25.9048 45.782 26.0114 45.7108 26.1288 45.6621C26.2462 45.6135 26.372 45.5885 26.4991 45.5885C26.6261 45.5885 26.752 45.6135 26.8693 45.6621C26.9867 45.7108 27.0934 45.782 27.1832 45.8719C27.7682 46.4571 28.4736 46.9077 29.2504 47.1926C30.0272 47.4775 30.8567 47.5897 31.6813 47.5214C32.5059 47.4532 33.3057 47.2061 34.0251 46.7974C34.7445 46.3887 35.3662 45.8282 35.847 45.1549L37.9684 42.1828C37.9939 42.1482 38.0173 42.112 38.0384 42.0746L38.7979 40.6787C40.4767 37.6011 41.222 34.1009 40.9426 30.6063L40.9299 30.4493C40.836 29.2781 40.4998 28.1391 39.9428 27.1045C39.3857 26.0699 38.6198 25.1624 37.6937 24.4392C36.7675 23.7161 35.7013 23.1932 34.5625 22.9036C33.4237 22.6141 32.2372 22.5642 31.0781 22.7571L27.5608 23.3426C27.582 21.898 27.8366 20.273 28.4052 18.9026C29.0013 17.4706 29.8838 16.4523 31.0781 16.0535ZM19.9408 28.7819C19.6155 28.8851 19.3138 29.0517 19.0531 29.2719C18.7924 29.4922 18.5779 29.7619 18.4218 30.0654C18.0273 30.8036 17.76 32.0213 18.0082 34.009C18.0431 34.2884 17.9655 34.5701 17.7927 34.7923C17.6198 35.0145 17.3658 35.159 17.0864 35.1938C16.8071 35.2287 16.5253 35.1512 16.3031 34.9784C16.0809 34.8055 15.9365 34.5514 15.9016 34.2721C15.6216 32.0149 15.8825 30.3157 16.5508 29.0662C17.2296 27.7933 18.2627 27.106 19.2704 26.7687C19.5374 26.6795 19.8288 26.7001 20.0807 26.8258C20.3325 26.9515 20.5241 27.1721 20.6133 27.4391C20.7024 27.706 20.6819 27.9975 20.5562 28.2493C20.4305 28.5012 20.2099 28.6927 19.9429 28.7819H19.9408Z" fill="white"/>
<path d="M37.5147 52.6718L54.7417 71.9734L58.8777 68.2819L51.4948 60.0098L59.7669 52.6268L67.1498 60.8989L71.2859 57.2074L54.059 37.9058L49.9229 41.5973L57.3059 49.8694L49.0338 57.2524L41.6508 48.9803L37.5147 52.6718ZM45.6836 70.1501C46.01 70.5158 46.4682 70.7368 46.9575 70.7646C47.4468 70.7924 47.9272 70.6246 48.2928 70.2983L49.6715 69.0678L39.8275 58.0383L38.4489 59.2688C38.0832 59.5952 37.8622 60.0534 37.8344 60.5427C37.8066 61.032 37.9743 61.5123 38.3007 61.878L40.7617 64.6354L39.383 65.8659L41.844 68.6232L43.2226 67.3927L45.6836 70.1501ZM63.117 39.7291C62.7906 39.3634 62.3324 39.1424 61.8431 39.1146C61.3538 39.0868 60.8735 39.2545 60.5078 39.5809L59.1291 40.8114L68.9731 51.8409L70.3518 50.6104C70.7174 50.284 70.9385 49.8258 70.9662 49.3365C70.994 48.8472 70.8263 48.3668 70.5 48.0012L68.039 45.2438L69.4177 44.0133L66.9567 41.256L65.578 42.4865L63.117 39.7291Z" fill="white"/>
</svg>
